<svg width="120" height="120" viewBox="0 0 120 120" fill="none" xmlns="http://www.w3.org/2000/svg">
<defs>
  <clipPath id="clip0">
    <rect width="120" height="120" fill="white"/>
  </clipPath>
</defs>
<g clip-path="url(#clip0)">
  <path d="M96 0H24C10.7452 0 0 10.7452 0 24V96C0 109.255 10.7452 120 24 120H96C109.255 120 120 109.255 120 96V24C120 10.7452 109.255 0 96 0Z" fill="#131B2E"/>
  <path d="M18 95L36.2609 71.2987L51.7826 82.6753L69.1304 50.4416L85.5652 33.3766L102 22" stroke="#4EDEA3" stroke-width="8.5" stroke-linecap="round" stroke-linejoin="round"/>
  <path d="M71.8691 102.842V101.395H75.6074V104.816C75.2441 105.168 74.7168 105.479 74.0254 105.748C73.3379 106.014 72.6406 106.146 71.9336 106.146C71.0352 106.146 70.252 105.959 69.584 105.584C68.916 105.205 68.4141 104.666 68.0781 103.967C67.7422 103.264 67.5742 102.5 67.5742 101.676C67.5742 100.781 67.7617 99.9863 68.1367 99.291C68.5117 98.5957 69.0605 98.0625 69.7832 97.6914C70.334 97.4062 71.0195 97.2637 71.8398 97.2637C72.9062 97.2637 73.7383 97.4883 74.3359 97.9375C74.9375 98.3828 75.3242 99 75.4961 99.7891L73.7734 100.111C73.6523 99.6895 73.4238 99.3574 73.0879 99.1152C72.7559 98.8691 72.3398 98.7461 71.8398 98.7461C71.082 98.7461 70.4785 98.9863 70.0293 99.4668C69.584 99.9473 69.3613 100.66 69.3613 101.605C69.3613 102.625 69.5879 103.391 70.041 103.902C70.4941 104.41 71.0879 104.664 71.8223 104.664C72.1855 104.664 72.5488 104.594 72.9121 104.453C73.2793 104.309 73.5938 104.135 73.8555 103.932V102.842H71.8691ZM78.7773 106H77.1309V99.7773H78.6602V100.662C78.9219 100.244 79.1562 99.9688 79.3633 99.8359C79.5742 99.7031 79.8125 99.6367 80.0781 99.6367C80.4531 99.6367 80.8145 99.7402 81.1621 99.9473L80.6523 101.383C80.375 101.203 80.1172 101.113 79.8789 101.113C79.6484 101.113 79.4531 101.178 79.293 101.307C79.1328 101.432 79.0059 101.66 78.9121 101.992C78.8223 102.324 78.7773 103.02 78.7773 104.078V106ZM81.4961 102.801C81.4961 102.254 81.6309 101.725 81.9004 101.213C82.1699 100.701 82.5508 100.311 83.043 100.041C83.5391 99.7715 84.0918 99.6367 84.7012 99.6367C85.6426 99.6367 86.4141 99.9434 87.0156 100.557C87.6172 101.166 87.918 101.938 87.918 102.871C87.918 103.812 87.6133 104.594 87.0039 105.215C86.3984 105.832 85.6348 106.141 84.7129 106.141C84.1426 106.141 83.5977 106.012 83.0781 105.754C82.5625 105.496 82.1699 105.119 81.9004 104.623C81.6309 104.123 81.4961 103.516 81.4961 102.801ZM83.1836 102.889C83.1836 103.506 83.3301 103.979 83.623 104.307C83.916 104.635 84.2773 104.799 84.707 104.799C85.1367 104.799 85.4961 104.635 85.7852 104.307C86.0781 103.979 86.2246 103.502 86.2246 102.877C86.2246 102.268 86.0781 101.799 85.7852 101.471C85.4961 101.143 85.1367 100.979 84.707 100.979C84.2773 100.979 83.916 101.143 83.623 101.471C83.3301 101.799 83.1836 102.271 83.1836 102.889ZM88.832 102.801C88.832 102.254 88.9668 101.725 89.2363 101.213C89.5059 100.701 89.8867 100.311 90.3789 100.041C90.875 99.7715 91.4277 99.6367 92.0371 99.6367C92.9785 99.6367 93.75 99.9434 94.3516 100.557C94.9531 101.166 95.2539 101.938 95.2539 102.871C95.2539 103.812 94.9492 104.594 94.3398 105.215C93.7344 105.832 92.9707 106.141 92.0488 106.141C91.4785 106.141 90.9336 106.012 90.4141 105.754C89.8984 105.496 89.5059 105.119 89.2363 104.623C88.9668 104.123 88.832 103.516 88.832 102.801ZM90.5195 102.889C90.5195 103.506 90.666 103.979 90.959 104.307C91.252 104.635 91.6133 104.799 92.043 104.799C92.4727 104.799 92.832 104.635 93.1211 104.307C93.4141 103.979 93.5605 103.502 93.5605 102.877C93.5605 102.268 93.4141 101.799 93.1211 101.471C92.832 101.143 92.4727 100.979 92.043 100.979C91.6133 100.979 91.252 101.143 90.959 101.471C90.666 101.799 90.5195 102.271 90.5195 102.889ZM98.2598 106L95.752 99.7773H97.4805L98.6523 102.953L98.9922 104.014C99.082 103.744 99.1387 103.566 99.1621 103.48C99.2168 103.305 99.2754 103.129 99.3379 102.953L100.521 99.7773H102.215L99.7422 106H98.2598Z" fill="white"/>
<path d="M102.367 106L105.303 101.518L102.643 97.4102H104.67L106.393 100.17L108.08 97.4102H110.09L107.418 101.582L110.354 106H108.262L106.357 103.029L104.447 106H102.367Z" fill="#4EDEA3"/>
</g>
</svg>